<svg data-v-2db5ea28="" aria-hidden="true" width="16" height="16" viewBox="0 0 178 178" focusable="false" class="logo fa-icon" xmlns="http://www.w3.org/2000/svg"><g><path d="M178 89c0 49.153-39.846 89-89 89-49.153 0-89-39.847-89-89S39.847 0 89 0c49.154 0 89 39.847 89 89" fill="#CD0C2B"></path><path d="m113.72 106.213 13.022 13.022c5.662 5.662 5.662 14.843 0 20.506-5.663 5.662-14.845 5.662-20.507 0l-28.987-28.989c-5.663-5.662-5.663-14.843 0-20.506A14.45 14.45 0 0 1 87.5 86c8.007 0 14.5-6.492 14.5-14.5S95.508 57 87.5 57c-8.01 0-14.5 6.492-14.5 14.5v58c0 8.008-6.492 14.5-14.501 14.5-8.008 0-14.5-6.492-14.5-14.5v-58C44 47.476 63.477 28 87.501 28 111.524 28 131 47.476 131 71.5c0 14.181-6.778 26.772-17.28 34.713" fill="#FFF"></path></g></svg>